<svg width="32" height="32" viewBox="0 0 32 32" fill="none" xmlns="http://www.w3.org/2000/svg">
<path d="M16.0003 18.6667C14.8892 18.6667 13.9448 18.2779 13.167 17.5001C12.3892 16.7223 12.0003 15.7779 12.0003 14.6667V6.66675C12.0003 5.55564 12.3892 4.61119 13.167 3.83341C13.9448 3.05564 14.8892 2.66675 16.0003 2.66675C17.1114 2.66675 18.0559 3.05564 18.8337 3.83341C19.6114 4.61119 20.0003 5.55564 20.0003 6.66675V14.6667C20.0003 15.7779 19.6114 16.7223 18.8337 17.5001C18.0559 18.2779 17.1114 18.6667 16.0003 18.6667ZM14.667 28.0001V23.9001C12.3559 23.589 10.4448 22.5556 8.93366 20.8001C7.42255 19.0445 6.66699 17.0001 6.66699 14.6667H9.33366C9.33366 16.5112 9.98366 18.0834 11.2837 19.3834C12.5837 20.6834 14.1559 21.3334 16.0003 21.3334C17.8448 21.3334 19.417 20.6834 20.717 19.3834C22.017 18.0834 22.667 16.5112 22.667 14.6667H25.3337C25.3337 17.0001 24.5781 19.0445 23.067 20.8001C21.5559 22.5556 19.6448 23.589 17.3337 23.9001V28.0001H14.667ZM16.0003 16.0001C16.3781 16.0001 16.6948 15.8723 16.9503 15.6167C17.2059 15.3612 17.3337 15.0445 17.3337 14.6667V6.66675C17.3337 6.28897 17.2059 5.9723 16.9503 5.71675C16.6948 5.46119 16.3781 5.33341 16.0003 5.33341C15.6225 5.33341 15.3059 5.46119 15.0503 5.71675C14.7948 5.9723 14.667 6.28897 14.667 6.66675V14.6667C14.667 15.0445 14.7948 15.3612 15.0503 15.6167C15.3059 15.8723 15.6225 16.0001 16.0003 16.0001Z" fill="#4343ff"/>
</svg>
