<svg width="27" height="27" viewBox="0 0 27 27" fill="none" xmlns="http://www.w3.org/2000/svg">
<path d="M9.55567 18.6667H11.7777V8H9.55567V18.6667ZM14.889 18.6667H17.111V8H14.889V18.6667ZM13.3333 26.6667C11.5038 26.6667 9.77789 26.3167 8.15567 25.6167C6.53345 24.9167 5.11856 23.963 3.911 22.7557C2.70367 21.5481 1.75 20.1332 1.05 18.511C0.35 16.8888 0 15.1629 0 13.3333C0 11.4889 0.35 9.75556 1.05 8.13333C1.75 6.51111 2.70367 5.1 3.911 3.9C5.11856 2.7 6.53345 1.75 8.15567 1.05C9.77789 0.35 11.5038 0 13.3333 0C15.1778 0 16.9111 0.35 18.5333 1.05C20.1556 1.75 21.5667 2.7 22.7667 3.9C23.9667 5.1 24.9167 6.51111 25.6167 8.13333C26.3167 9.75556 26.6667 11.4889 26.6667 13.3333C26.6667 15.1629 26.3167 16.8888 25.6167 18.511C24.9167 20.1332 23.9667 21.5481 22.7667 22.7557C21.5667 23.963 20.1556 24.9167 18.5333 25.6167C16.9111 26.3167 15.1778 26.6667 13.3333 26.6667ZM13.3333 24.4443C16.4296 24.4443 19.0554 23.3629 21.211 21.2C23.3666 19.0371 24.4443 16.4149 24.4443 13.3333C24.4443 10.2371 23.3666 7.61122 21.211 5.45567C19.0554 3.30011 16.4296 2.22233 13.3333 2.22233C10.2518 2.22233 7.62956 3.30011 5.46667 5.45567C3.30378 7.61122 2.22233 10.2371 2.22233 13.3333C2.22233 16.4149 3.30378 19.0371 5.46667 21.2C7.62956 23.3629 10.2518 24.4443 13.3333 24.4443Z" fill="#4343ff"/>
</svg>
